<svg width="36" height="28" viewBox="0 0 36 28" fill="none" xmlns="http://www.w3.org/2000/svg">
<path d="M34.1989 12.1835C35.0284 13.2685 35.0284 14.7333 34.1989 15.8165C31.5862 19.2273 25.3177 26.25 17.9992 26.25C10.6807 26.25 4.41217 19.2273 1.79941 15.8165C1.39584 15.297 1.17676 14.6579 1.17676 14C1.17676 13.3421 1.39584 12.703 1.79941 12.1835C4.41217 8.77275 10.6807 1.75 17.9992 1.75C25.3177 1.75 31.5862 8.77275 34.1989 12.1835Z" stroke="#4191E2" stroke-width="2" stroke-linecap="round" stroke-linejoin="round"/>
<path d="M18 19.25C20.8995 19.25 23.25 16.8995 23.25 14C23.25 11.1005 20.8995 8.75 18 8.75C15.1005 8.75 12.75 11.1005 12.75 14C12.75 16.8995 15.1005 19.25 18 19.25Z" stroke="#4191E2" stroke-width="2" stroke-linecap="round" stroke-linejoin="round"/>
</svg>
